<svg width="24" height="22" viewBox="0 0 24 22" fill="none" xmlns="http://www.w3.org/2000/svg">
<path d="M7 15.5833H19C19.5304 15.5833 20.0391 15.3902 20.4142 15.0464C20.7893 14.7025 21 14.2362 21 13.75V4.58333C21 4.0971 20.7893 3.63079 20.4142 3.28697C20.0391 2.94315 19.5304 2.75 19 2.75H5C4.46957 2.75 3.96086 2.94315 3.58579 3.28697C3.21071 3.63079 3 4.0971 3 4.58333V19.25L5 17.4167" stroke="#343A3F" stroke-width="2" stroke-linecap="round" stroke-linejoin="round"/>
<path d="M12.85 10.2335H11.83L11.56 7.5835V5.5835H13.11V7.5835L12.85 10.2335ZM13.19 11.8635C13.19 12.0968 13.1067 12.2968 12.94 12.4635C12.7733 12.6302 12.5733 12.7135 12.34 12.7135C12.1067 12.7135 11.9067 12.6302 11.74 12.4635C11.5733 12.2968 11.49 12.0968 11.49 11.8635C11.49 11.6302 11.5733 11.4302 11.74 11.2635C11.9067 11.0968 12.1067 11.0135 12.34 11.0135C12.5733 11.0135 12.7733 11.0968 12.94 11.2635C13.1067 11.4302 13.19 11.6302 13.19 11.8635Z" fill="black"/>
</svg>
