<svg width="18" height="18" viewBox="0 0 18 18" fill="none" xmlns="http://www.w3.org/2000/svg">
<path d="M7.79205 1.8V7.95H1.83597C1.26226 7.95 0.810211 8.42741 0.810211 9C0.810211 9.57259 1.26226 10.05 1.83597 10.05H7.79205V16.2C7.79205 16.7726 8.2441 17.25 8.81781 17.25C9.39152 17.25 9.84357 16.7726 9.84357 16.2V10.05H15.7996C16.3734 10.05 16.8254 9.57259 16.8254 9C16.8254 8.42741 16.3734 7.95 15.7996 7.95H9.84357V1.8C9.84357 1.22741 9.39152 0.75 8.81781 0.75C8.2441 0.75 7.79205 1.22741 7.79205 1.8Z" fill="white" stroke="white" stroke-width="0.5"/>
</svg>
