<svg width="195" height="100" viewBox="0 0 195 100" fill="none" xmlns="http://www.w3.org/2000/svg">
<path d="M34.028 45L33.981 25.307L24.299 41.522H20.915L11.233 25.683V45H4.089V12.1H10.387L22.701 32.545L34.827 12.1H41.125L41.172 45H34.028ZM58.6039 19.338C62.5205 19.338 65.5285 20.278 67.6279 22.158C69.7272 24.0067 70.7769 26.811 70.7769 30.571V45H63.9149V41.851C62.5362 44.201 59.9669 45.376 56.2069 45.376C54.2642 45.376 52.5722 45.047 51.1309 44.389C49.7209 43.731 48.6399 42.8223 47.8879 41.663C47.1359 40.5037 46.7599 39.1877 46.7599 37.715C46.7599 35.365 47.6372 33.5163 49.3919 32.169C51.1779 30.8217 53.9195 30.148 57.6169 30.148H63.4449C63.4449 28.55 62.9592 27.328 61.9879 26.482C61.0165 25.6047 59.5595 25.166 57.6169 25.166C56.2695 25.166 54.9379 25.3853 53.6219 25.824C52.3372 26.2313 51.2405 26.7953 50.3319 27.516L47.6999 22.393C49.0785 21.4217 50.7235 20.6697 52.6349 20.137C54.5775 19.6043 56.5672 19.338 58.6039 19.338ZM58.0399 40.441C59.2932 40.441 60.4055 40.159 61.3769 39.595C62.3482 38.9997 63.0375 38.138 63.4449 37.01V34.425H58.4159C55.4079 34.425 53.9039 35.412 53.9039 37.386C53.9039 38.326 54.2642 39.078 54.9849 39.642C55.7369 40.1747 56.7552 40.441 58.0399 40.441ZM92.0451 19.338C94.3951 19.338 96.5258 19.8863 98.4371 20.983C100.38 22.0483 101.899 23.568 102.996 25.542C104.093 27.4847 104.641 29.7563 104.641 32.357C104.641 34.9577 104.093 37.245 102.996 39.219C101.899 41.1617 100.38 42.6813 98.4371 43.778C96.5258 44.8433 94.3951 45.376 92.0451 45.376C88.8178 45.376 86.2798 44.3577 84.4311 42.321V54.118H77.0991V19.714H84.1021V22.628C85.9194 20.4347 88.5671 19.338 92.0451 19.338ZM90.7761 39.36C92.6561 39.36 94.1914 38.7333 95.3821 37.48C96.6041 36.1953 97.2151 34.4877 97.2151 32.357C97.2151 30.2263 96.6041 28.5343 95.3821 27.281C94.1914 25.9963 92.6561 25.354 90.7761 25.354C88.8961 25.354 87.3451 25.9963 86.1231 27.281C84.9324 28.5343 84.3371 30.2263 84.3371 32.357C84.3371 34.4877 84.9324 36.1953 86.1231 37.48C87.3451 38.7333 88.8961 39.36 90.7761 39.36ZM120.919 35.412H117.112V45H109.78V19.714H117.112V29.537H121.06L127.922 19.714H135.724L126.888 31.84L136.335 45H127.687L120.919 35.412ZM163.736 32.451C163.736 32.545 163.689 33.203 163.595 34.425H144.466C144.811 35.9917 145.625 37.2293 146.91 38.138C148.195 39.0467 149.793 39.501 151.704 39.501C153.02 39.501 154.179 39.313 155.182 38.937C156.216 38.5297 157.172 37.903 158.049 37.057L161.95 41.287C159.569 44.013 156.091 45.376 151.516 45.376C148.665 45.376 146.142 44.8277 143.949 43.731C141.756 42.603 140.064 41.052 138.873 39.078C137.682 37.104 137.087 34.8637 137.087 32.357C137.087 29.8817 137.667 27.657 138.826 25.683C140.017 23.6777 141.63 22.1267 143.667 21.03C145.735 19.902 148.038 19.338 150.576 19.338C153.051 19.338 155.292 19.8707 157.297 20.936C159.302 22.0013 160.869 23.5367 161.997 25.542C163.156 27.516 163.736 29.819 163.736 32.451ZM150.623 24.884C148.962 24.884 147.568 25.354 146.44 26.294C145.312 27.234 144.623 28.5187 144.372 30.148H156.827C156.576 28.55 155.887 27.281 154.759 26.341C153.631 25.3697 152.252 24.884 150.623 24.884ZM189.728 25.73H181.174V45H173.889V25.73H165.335V19.714H189.728V25.73Z" fill="black"/>
<path d="M5.625 72.17H11.05V79.52H19.24V72.17H24.7V91H19.24V83.965H11.05V91H5.625V72.17ZM37.2418 71.89C40.1584 71.89 42.3984 72.59 43.9618 73.99C45.5251 75.3667 46.3068 77.455 46.3068 80.255V91H41.1968V88.655C40.1701 90.405 38.2568 91.28 35.4568 91.28C34.0101 91.28 32.7501 91.035 31.6768 90.545C30.6268 90.055 29.8218 89.3783 29.2618 88.515C28.7018 87.6517 28.4218 86.6717 28.4218 85.575C28.4218 83.825 29.0751 82.4483 30.3818 81.445C31.7118 80.4417 33.7534 79.94 36.5068 79.94H40.8468C40.8468 78.75 40.4851 77.84 39.7618 77.21C39.0384 76.5567 37.9534 76.23 36.5068 76.23C35.5034 76.23 34.5118 76.3933 33.5318 76.72C32.5751 77.0233 31.7584 77.4433 31.0818 77.98L29.1218 74.165C30.1484 73.4417 31.3734 72.8817 32.7968 72.485C34.2434 72.0883 35.7251 71.89 37.2418 71.89ZM36.8218 87.605C37.7551 87.605 38.5834 87.395 39.3068 86.975C40.0301 86.5317 40.5434 85.89 40.8468 85.05V83.125H37.1018C34.8618 83.125 33.7418 83.86 33.7418 85.33C33.7418 86.03 34.0101 86.59 34.5468 87.01C35.1068 87.4067 35.8651 87.605 36.8218 87.605ZM72.0569 71.89C73.8069 71.89 75.3936 72.2983 76.8169 73.115C78.2636 73.9083 79.3952 75.04 80.2119 76.51C81.0286 77.9567 81.4369 79.6483 81.4369 81.585C81.4369 83.5217 81.0286 85.225 80.2119 86.695C79.3952 88.1417 78.2636 89.2733 76.8169 90.09C75.3936 90.8833 73.8069 91.28 72.0569 91.28C69.6536 91.28 67.7636 90.5217 66.3869 89.005V97.79H60.9269V72.17H66.1419V74.34C67.4952 72.7067 69.4669 71.89 72.0569 71.89ZM71.1119 86.8C72.5119 86.8 73.6552 86.3333 74.5419 85.4C75.4519 84.4433 75.9069 83.1717 75.9069 81.585C75.9069 79.9983 75.4519 78.7383 74.5419 77.805C73.6552 76.8483 72.5119 76.37 71.1119 76.37C69.7119 76.37 68.5569 76.8483 67.6469 77.805C66.7602 78.7383 66.3169 79.9983 66.3169 81.585C66.3169 83.1717 66.7602 84.4433 67.6469 85.4C68.5569 86.3333 69.7119 86.8 71.1119 86.8ZM92.2711 71.89C95.1877 71.89 97.4277 72.59 98.9911 73.99C100.554 75.3667 101.336 77.455 101.336 80.255V91H96.2261V88.655C95.1994 90.405 93.2861 91.28 90.4861 91.28C89.0394 91.28 87.7794 91.035 86.7061 90.545C85.6561 90.055 84.8511 89.3783 84.2911 88.515C83.7311 87.6517 83.4511 86.6717 83.4511 85.575C83.4511 83.825 84.1044 82.4483 85.4111 81.445C86.7411 80.4417 88.7827 79.94 91.5361 79.94H95.8761C95.8761 78.75 95.5144 77.84 94.7911 77.21C94.0677 76.5567 92.9827 76.23 91.5361 76.23C90.5327 76.23 89.5411 76.3933 88.5611 76.72C87.6044 77.0233 86.7877 77.4433 86.1111 77.98L84.1511 74.165C85.1777 73.4417 86.4027 72.8817 87.8261 72.485C89.2727 72.0883 90.7544 71.89 92.2711 71.89ZM91.8511 87.605C92.7844 87.605 93.6127 87.395 94.3361 86.975C95.0594 86.5317 95.5727 85.89 95.8761 85.05V83.125H92.1311C89.8911 83.125 88.7711 83.86 88.7711 85.33C88.7711 86.03 89.0394 86.59 89.5761 87.01C90.1361 87.4067 90.8944 87.605 91.8511 87.605ZM106.079 72.17H111.504V83.37L120.674 72.17H125.679V91H120.254V79.8L111.119 91H106.079V72.17ZM115.529 70.14C111.422 70.14 109.357 68.3317 109.334 64.715H112.904C112.927 65.5317 113.149 66.1733 113.569 66.64C114.012 67.0833 114.654 67.305 115.494 67.305C116.334 67.305 116.976 67.0833 117.419 66.64C117.886 66.1733 118.119 65.5317 118.119 64.715H121.759C121.736 68.3317 119.659 70.14 115.529 70.14ZM139.748 91.28C137.764 91.28 135.979 90.8717 134.393 90.055C132.829 89.215 131.604 88.06 130.718 86.59C129.831 85.12 129.388 83.4517 129.388 81.585C129.388 79.7183 129.831 78.05 130.718 76.58C131.604 75.11 132.829 73.9667 134.393 73.15C135.979 72.31 137.764 71.89 139.748 71.89C141.731 71.89 143.504 72.31 145.068 73.15C146.631 73.9667 147.856 75.11 148.743 76.58C149.629 78.05 150.073 79.7183 150.073 81.585C150.073 83.4517 149.629 85.12 148.743 86.59C147.856 88.06 146.631 89.215 145.068 90.055C143.504 90.8717 141.731 91.28 139.748 91.28ZM139.748 86.8C141.148 86.8 142.291 86.3333 143.178 85.4C144.088 84.4433 144.543 83.1717 144.543 81.585C144.543 79.9983 144.088 78.7383 143.178 77.805C142.291 76.8483 141.148 76.37 139.748 76.37C138.348 76.37 137.193 76.8483 136.283 77.805C135.373 78.7383 134.918 79.9983 134.918 81.585C134.918 83.1717 135.373 84.4433 136.283 85.4C137.193 86.3333 138.348 86.8 139.748 86.8ZM153.828 72.17H159.253V79.52H167.443V72.17H172.903V91H167.443V83.965H159.253V91H153.828V72.17ZM178.025 72.17H183.485V91H178.025V72.17ZM180.755 69.545C179.752 69.545 178.935 69.2533 178.305 68.67C177.675 68.0867 177.36 67.3633 177.36 66.5C177.36 65.6367 177.675 64.9133 178.305 64.33C178.935 63.7467 179.752 63.455 180.755 63.455C181.758 63.455 182.575 63.735 183.205 64.295C183.835 64.855 184.15 65.555 184.15 66.395C184.15 67.305 183.835 68.0633 183.205 68.67C182.575 69.2533 181.758 69.545 180.755 69.545Z" fill="black"/>
</svg>
