<svg width="50" height="50" viewBox="0 0 50 50" fill="none" xmlns="http://www.w3.org/2000/svg">
<g filter="url(#filter0_d)">
<circle cx="25" cy="25" r="15" fill="#00E640"/>
</g>
<path d="M32.3307 20.3183C32.2337 20.2175 32.1183 20.1374 31.9911 20.0828C31.8639 20.0281 31.7275 20 31.5897 20C31.452 20 31.3156 20.0281 31.1884 20.0828C31.0612 20.1374 30.9458 20.2175 30.8488 20.3183L23.0739 28.3464L19.8074 24.9673C19.7067 24.867 19.5878 24.7881 19.4575 24.7351C19.3272 24.6822 19.1881 24.6562 19.048 24.6587C18.908 24.6612 18.7698 24.6921 18.6414 24.7497C18.5129 24.8072 18.3967 24.8903 18.2994 24.9942C18.2021 25.0981 18.1256 25.2207 18.0743 25.3551C18.0229 25.4894 17.9977 25.6329 18.0002 25.7773C18.0026 25.9217 18.0326 26.0642 18.0884 26.1966C18.1442 26.3291 18.2248 26.4489 18.3255 26.5492L22.333 30.6817C22.43 30.7825 22.5454 30.8626 22.6726 30.9172C22.7998 30.9719 22.9362 31 23.0739 31C23.2117 31 23.3481 30.9719 23.4753 30.9172C23.6024 30.8626 23.7179 30.7825 23.8149 30.6817L32.3307 21.9003C32.4366 21.7995 32.5212 21.6772 32.579 21.5411C32.6368 21.4049 32.6667 21.2579 32.6667 21.1093C32.6667 20.9607 32.6368 20.8137 32.579 20.6775C32.5212 20.5414 32.4366 20.4191 32.3307 20.3183Z" fill="white"/>
<defs>
<filter id="filter0_d" x="0" y="0" width="50" height="50" filterUnits="userSpaceOnUse" color-interpolation-filters="sRGB">
<feFlood flood-opacity="0" result="BackgroundImageFix"/>
<feColorMatrix in="SourceAlpha" type="matrix" values="0 0 0 0 0 0 0 0 0 0 0 0 0 0 0 0 0 0 127 0"/>
<feOffset/>
<feGaussianBlur stdDeviation="5"/>
<feColorMatrix type="matrix" values="0 0 0 0 0 0 0 0 0 0 0 0 0 0 0 0 0 0 0.15 0"/>
<feBlend mode="normal" in2="BackgroundImageFix" result="effect1_dropShadow"/>
<feBlend mode="normal" in="SourceGraphic" in2="effect1_dropShadow" result="shape"/>
</filter>
</defs>
</svg>
