<svg width="50" height="50" viewBox="0 0 50 50" fill="none" xmlns="http://www.w3.org/2000/svg">
<g filter="url(#filter0_d)">
<circle cx="25" cy="25" r="15" fill="#EC001C"/>
</g>
<path d="M25.8039 27.587H23.701L23.1443 22.1234V18H26.34V22.1234L25.8039 27.587ZM26.5049 30.9475C26.5049 31.4286 26.3331 31.841 25.9895 32.1846C25.6459 32.5282 25.2335 32.7 24.7525 32.7C24.2714 32.7 23.859 32.5282 23.5154 32.1846C23.1718 31.841 23 31.4286 23 30.9475C23 30.4665 23.1718 30.0541 23.5154 29.7105C23.859 29.3669 24.2714 29.1951 24.7525 29.1951C25.2335 29.1951 25.6459 29.3669 25.9895 29.7105C26.3331 30.0541 26.5049 30.4665 26.5049 30.9475Z" fill="white"/>
<defs>
<filter id="filter0_d" x="0" y="0" width="50" height="50" filterUnits="userSpaceOnUse" color-interpolation-filters="sRGB">
<feFlood flood-opacity="0" result="BackgroundImageFix"/>
<feColorMatrix in="SourceAlpha" type="matrix" values="0 0 0 0 0 0 0 0 0 0 0 0 0 0 0 0 0 0 127 0"/>
<feOffset/>
<feGaussianBlur stdDeviation="5"/>
<feColorMatrix type="matrix" values="0 0 0 0 0 0 0 0 0 0 0 0 0 0 0 0 0 0 0.15 0"/>
<feBlend mode="normal" in2="BackgroundImageFix" result="effect1_dropShadow"/>
<feBlend mode="normal" in="SourceGraphic" in2="effect1_dropShadow" result="shape"/>
</filter>
</defs>
</svg>
